<svg width="267" height="400" viewBox="0 0 267 400" fill="none" xmlns="http://www.w3.org/2000/svg">
<style>
  .circle { fill: #191B1F; }
  .dot { fill: #787D88; }
  @media (prefers-color-scheme: dark) {
    .circle { fill: #E8E8EC; }
    .dot { fill: #939FAD; }
  }
</style>
<path class="circle" d="M133.335 266.67C206.974 266.67 266.67 206.974 266.67 133.335C266.67 59.6958 206.974 0 133.335 0C59.6958 0 0 59.6958 0 133.335C0 206.974 59.6958 266.67 133.335 266.67Z"/>
<path class="dot" fill-rule="evenodd" clip-rule="evenodd" d="M61.5394 400C95.5266 400 123.078 372.448 123.078 338.461C123.078 304.474 95.5266 276.922 61.5394 276.922C50.755 276.922 31.5775 276.922 4.0067 276.922C1.79756 276.922 0 278.719 0 280.929C0 308.443 0 327.621 0 338.461C0 372.448 27.5521 400 61.5394 400Z"/>
</svg>
