<svg xmlns="http://www.w3.org/2000/svg" width="54" height="21" viewBox="0 0 54 21">
    <path fill="#FFFFFF" fill-rule="evenodd" d="M2.8 3.26v1.572h.074c.146-.219.337-.442.572-.668.235-.227.524-.43.865-.61a5.511 5.511 0 0 1 2.606-.622c.827 0 1.59.153 2.288.457a5.46 5.46 0 0 1 2.972 3.132c.276.72.414 1.493.414 2.322s-.134 1.607-.402 2.334a5.679 5.679 0 0 1-1.145 1.9c-.495.54-1.096.97-1.802 1.29-.706.32-1.506.481-2.399.481a5.23 5.23 0 0 1-2.277-.493c-.69-.328-1.221-.774-1.595-1.337h-.049v7.131H0V3.26h2.8zm6.82 5.583c0-.438-.07-.872-.207-1.302a3.592 3.592 0 0 0-.622-1.16 3.096 3.096 0 0 0-1.047-.834c-.422-.21-.917-.316-1.485-.316-.536 0-1.015.11-1.437.328-.422.22-.783.5-1.084.845-.3.344-.527.735-.682 1.172a3.931 3.931 0 0 0-.231 1.314c0 .438.077.872.231 1.302.155.43.382.817.682 1.161a3.5 3.5 0 0 0 1.084.833c.422.21.901.316 1.437.316.568 0 1.063-.11 1.485-.328.422-.219.771-.5 1.047-.844a3.57 3.57 0 0 0 .622-1.173c.138-.438.207-.876.207-1.314zm4.885-5.583h2.8v1.877h.049a4.145 4.145 0 0 1 1.364-1.595c.584-.407 1.266-.61 2.045-.61.114 0 .236.004.366.012s.243.027.34.058v2.58a3.57 3.57 0 0 0-.901-.117c-.665 0-1.2.118-1.607.352A2.882 2.882 0 0 0 17.55 7.67a3.79 3.79 0 0 0-.122.821v6.029h-2.922V3.26zm6.833 5.583c0-.891.166-1.7.5-2.428a5.68 5.68 0 0 1 1.35-1.864 6 6 0 0 1 2.022-1.197 7.256 7.256 0 0 1 2.484-.422c.877 0 1.705.14 2.484.422A6 6 0 0 1 32.2 4.551a5.68 5.68 0 0 1 1.352 1.864c.333.728.5 1.537.5 2.428 0 .892-.167 1.705-.5 2.44a5.777 5.777 0 0 1-1.352 1.888 6.208 6.208 0 0 1-2.02 1.231 6.913 6.913 0 0 1-2.485.446 6.913 6.913 0 0 1-2.484-.446 6.208 6.208 0 0 1-2.021-1.231 5.777 5.777 0 0 1-1.352-1.888c-.333-.735-.5-1.548-.5-2.44zm2.971 0c0 .438.069.876.207 1.314.138.438.345.829.621 1.173.276.344.625.625 1.047.844.422.219.926.328 1.51.328.585 0 1.088-.11 1.51-.328.422-.219.771-.5 1.047-.844a3.57 3.57 0 0 0 .621-1.173 4.237 4.237 0 0 0 0-2.615 3.592 3.592 0 0 0-.62-1.162 3.096 3.096 0 0 0-1.048-.833c-.422-.21-.925-.316-1.51-.316-.584 0-1.088.105-1.51.316a3.096 3.096 0 0 0-1.047.833 3.592 3.592 0 0 0-.621 1.161c-.138.43-.207.864-.207 1.302zm9.975-3.33V3.26h2.046V0h2.873v3.26h2.923v2.252h-2.923v5.231c0 .5.094.915.28 1.243.187.329.605.493 1.254.493.195 0 .406-.02.634-.059.227-.039.43-.097.608-.176l.098 2.205c-.26.094-.568.168-.926.223a6.76 6.76 0 0 1-1.022.082c-.78 0-1.413-.105-1.9-.316-.487-.212-.873-.5-1.157-.868a3.157 3.157 0 0 1-.584-1.267 7.103 7.103 0 0 1-.158-1.536V5.512h-2.046zM54 14.52h-2.776v-1.807h-.049c-.26.563-.71 1.06-1.352 1.49-.64.43-1.4.645-2.277.645-.763 0-1.416-.129-1.96-.387a3.845 3.845 0 0 1-1.34-1.02 4.073 4.073 0 0 1-.767-1.455 5.907 5.907 0 0 1-.243-1.689V3.26h2.922V9.5c0 .328.025.672.073 1.032.049.36.155.684.317.973.162.29.386.528.67.716.284.188.661.281 1.132.281.455 0 .856-.09 1.206-.27.349-.18.633-.41.852-.691a3.02 3.02 0 0 0 .5-.974c.113-.367.17-.739.17-1.114V3.26H54v11.26z"/>
</svg>
