<svg width="1600" height="493" viewBox="0 0 1600 493" fill="none" xmlns="http://www.w3.org/2000/svg">
<path d="M497.795 456.044L557.214 423.396V319.837H560.413C568.184 333.092 591.037 356.86 633.545 356.86C699.363 356.86 745.07 304.754 745.07 229.795C745.07 154.835 698.906 104.558 631.716 104.558C587.838 104.558 565.898 131.068 559.499 141.123H556.3V110.5H497.795V456.044ZM620.29 302.926C583.267 302.926 555.843 275.502 555.843 230.709C555.843 190.03 580.525 158.492 619.832 158.492C658.683 158.492 684.736 186.83 684.736 230.709C684.736 273.216 658.683 302.926 620.29 302.926Z" fill="#111827"/>
<path d="M774.893 350.918H834.312V237.108C834.312 194.143 857.166 166.262 895.103 166.262H919.784V109.586H897.845C864.479 109.586 842.54 131.068 834.769 149.808H831.113V110.5H774.893V350.918Z" fill="#111827"/>
<path d="M1052.85 356.86C1127.81 356.86 1180.83 302.012 1180.83 230.709C1180.83 159.406 1128.27 104.558 1052.85 104.558C976.979 104.558 924.873 159.406 924.873 230.709C924.873 302.469 977.436 356.86 1052.85 356.86ZM1052.85 302.926C1013.54 302.926 985.206 273.216 985.206 230.709C985.206 189.116 1013.09 158.492 1052.85 158.492C1092.16 158.492 1120.5 189.116 1120.5 230.709C1120.5 272.759 1092.16 302.926 1052.85 302.926Z" fill="#111827"/>
<path d="M1314.57 350.918H1358.91V301.555H1326.91C1304.06 301.555 1294 288.757 1294 268.646V158.035H1360.28V110.5H1294V44.2246L1238.24 76.8724V110.957C1238.24 110.957 1231.38 110.957 1220.87 110.957H1193.9V158.035H1234.58V270.931C1234.58 322.58 1264.75 350.918 1314.57 350.918Z" fill="#111827"/>
<path d="M1472.48 356.86C1506.3 356.86 1530.07 339.491 1539.67 321.666H1543.32V350.918H1600V110.5H1540.58V248.535C1540.58 278.701 1520.01 302.012 1491.22 302.012C1463.79 302.012 1444.6 281.901 1444.6 252.648V110.5H1385.18V267.731C1385.18 318.923 1418.54 356.86 1472.48 356.86Z" fill="#111827"/>
<path d="M165.571 328.419C257.014 328.419 331.142 254.901 331.142 164.21C331.142 73.5189 257.014 0 165.571 0C74.1284 0 0 73.5189 0 164.21C0 254.901 74.1284 328.419 165.571 328.419Z" fill="#111827"/>
<path fill-rule="evenodd" clip-rule="evenodd" d="M76.4176 492.656C118.622 492.656 152.835 458.725 152.835 416.867C152.835 375.01 118.622 341.078 76.4176 341.078C62.8998 341.078 38.7622 341.078 4.00474 341.078C1.7956 341.078 0 342.874 0 345.083C0 379.467 0 403.395 0 416.867C0 458.725 34.2133 492.656 76.4176 492.656Z" fill="#9ca3af"/>
</svg>
